/vscmnt/brussel_pixiu_data/_data_brussel/112/vsc11236/PredSimResults/SUBJ04mtu3D/weighted-expIG/worker_05.mot
version=1
nRows=8
nColumns=50
inDegrees=yes
endheader
                time	         pelvis_tilt	         pelvis_list	     pelvis_rotation	           pelvis_tx	           pelvis_ty	           pelvis_tz	       hip_flexion_r	     hip_adduction_r	      hip_rotation_r	        knee_angle_r	       ankle_angle_r	         mtp_angle_r	       hip_flexion_l	     hip_adduction_l	      hip_rotation_l	        knee_angle_l	       ankle_angle_l	         mtp_angle_l	    lumbar_extension	      lumbar_bending	     lumbar_rotation	 ercspn_r/activation	 intobl_r/activation	 extobl_r/activation	    abd_r/activation	    add_r/activation	hamstrings_r/activation	bifemsh_r/activation	glut_max_r/activation	iliopsoas_r/activation	rect_fem_r/activation	  vasti_r/activation	gastroc_r/activation	 soleus_r/activation	tib_ant_r/activation	 ercspn_l/activation	 intobl_l/activation	 extobl_l/activation	    abd_l/activation	    add_l/activation	hamstrings_l/activation	bifemsh_l/activation	glut_max_l/activation	iliopsoas_l/activation	rect_fem_l/activation	  vasti_l/activation	gastroc_l/activation	 soleus_l/activation	tib_ant_l/activation	
          0.00000000	         -5.99949176	         -4.67750812	         12.44015578	          0.00000000	          0.88315107	         -0.02303759	         25.14725136	         -0.00343095	         -5.70598659	          2.32761865	          5.49366984	          0.21526562	         -7.46462616	         -3.88868029	         16.20339331	         -7.85417187	         12.70068497	         22.27108866	         -2.42711442	          1.53099773	         -1.51261295	          0.09362901	          0.15723695	          0.02219208	          0.02033053	          0.10135100	          0.03419896	          0.01000515	          0.01000004	          0.05850118	          0.01384059	          0.01983674	          0.01000007	          0.01000004	          0.26949370	          0.03315498	          0.01000003	          0.01000005	          0.09599952	          0.01000026	          0.02085471	          0.15336343	          0.08066740	          0.35065852	          0.01000031	          0.01000006	          0.32687433	          0.29230555	          0.01521672	
          0.01401298	         -6.12478873	         -4.56169258	         12.33629739	          0.01489680	          0.88114232	         -0.02187143	         24.85720936	          0.27817161	         -4.51419215	          1.64834667	          5.11882702	          0.22171848	         -7.73664094	         -3.76879948	         15.42811493	         -9.06695073	         12.58202073	         23.91438628	         -2.12787818	          1.83660393	         -1.76751631	          0.07590224	          0.14977539	          0.01799043	          0.01648135	          0.14834720	          0.03070785	          0.01000081	          0.01342741	          0.04742509	          0.01122747	          0.01608145	          0.01551956	          0.01778663	          0.26973595	          0.06189000	          0.01000004	          0.01000008	          0.07782381	          0.02668345	          0.01870474	          0.12432706	          0.07037411	          0.32453823	          0.01000031	          0.01000007	          0.30662720	          0.29065858	          0.01233572	
          0.02802596	         -6.23197167	         -4.43889378	         12.16564760	          0.03021026	          0.87927337	         -0.02061644	         24.43382917	          0.55769147	         -3.34461810	          0.92349062	          4.71833973	          0.21337236	         -7.95092843	         -3.62061573	         14.59184137	        -10.47942982	         12.34840590	         25.62412442	         -1.80788641	          2.15679762	         -2.01322893	          0.06479573	          0.16275325	          0.01458429	          0.01781683	          0.12026071	          0.03381938	          0.03729193	          0.02737280	          0.03844604	          0.01000016	          0.01303678	          0.01258125	          0.01441908	          0.30738676	          0.07696031	          0.01000003	          0.01000009	          0.06308934	          0.04771601	          0.01659237	          0.10078816	          0.05705026	          0.28882252	          0.01000036	          0.01000008	          0.28130367	          0.28196920	          0.01000019	
          0.04203894	         -6.32211930	         -4.31529745	         11.91734077	          0.04573150	          0.87775441	         -0.01925520	         23.88102389	          0.85448034	         -2.24697485	          0.42875515	          4.16557834	          0.20008604	         -8.04193272	         -3.44027624	         13.70200601	        -12.16998141	         11.94170875	         27.39471352	         -1.48896024	          2.50039087	         -2.24665985	          0.06962083	          0.14252953	          0.01182305	          0.04500356	          0.09768144	          0.03479057	          0.03023178	          0.04017368	          0.03116701	          0.01000026	          0.01056889	          0.01019929	          0.01168914	          0.33507672	          0.09949841	          0.01000003	          0.01000008	          0.05114455	          0.04556469	          0.01714882	          0.08170590	          0.04624890	          0.24640721	          0.01000053	          0.01000015	          0.25041453	          0.26448056	          0.01000001	
          0.05605192	         -6.39539589	         -4.19059029	         11.59160924	          0.06129435	          0.87677514	         -0.01780150	         23.25139893	          1.17035000	         -1.23226018	          0.03514650	          3.66564561	          0.18441318	         -7.97102717	         -3.22506881	         12.75354999	        -14.16675216	         11.29452388	         29.19749985	         -1.18444979	          2.86792330	         -2.46472104	          0.06609736	          0.11554448	          0.01000005	          0.06595463	          0.08409103	          0.03869672	          0.02450827	          0.04633924	          0.02526613	          0.01000023	          0.02339866	          0.01000020	          0.01000014	          0.35991546	          0.11852652	          0.01000002	          0.01000008	          0.04146129	          0.04788095	          0.01904908	          0.06623655	          0.03749255	          0.21566043	          0.01000041	          0.01000012	          0.20300324	          0.23863668	          0.01000001	
          0.07006489	         -6.45172753	         -4.06214988	         11.19296779	          0.07679501	          0.87642154	         -0.01627323	         22.56061979	          1.49629317	         -0.29933016	         -0.29638325	          3.29627665	          0.16980967	         -7.72054396	         -2.97556346	         11.73544878	        -16.47237277	         10.38561119	         30.94093238	         -0.90016609	          3.25249614	         -2.66287972	          0.05980964	          0.09366835	          0.01000006	          0.08885239	          0.08026741	          0.04270140	          0.01986843	          0.04231728	          0.02048246	          0.01000019	          0.03113244	          0.01000025	          0.01000017	          0.37107884	          0.13234102	          0.01000003	          0.01000009	          0.03361137	          0.05791263	          0.02475504	          0.05369611	          0.03039404	          0.19430609	          0.01000023	          0.01000008	          0.16456836	          0.19345535	          0.01000001	
          0.08407787	         -6.49138642	         -3.92534183	         10.72681994	          0.09212430	          0.87669167	         -0.01469351	         21.81913311	          1.81760225	          0.55809916	         -0.58001696	          3.08256819	          0.15785568	         -7.27592918	         -2.69242907	         10.63099629	        -19.08963650	          9.25114470	         32.45151050	         -0.64441975	          3.64592027	         -2.83807601	          0.04958202	          0.07593403	          0.01000006	          0.10806552	          0.07010975	          0.04492791	          0.01610709	          0.03528449	          0.01660450	          0.01000015	          0.03797962	          0.01000028	          0.01000020	          0.36849550	          0.14237719	          0.01000004	          0.01000012	          0.02724769	          0.07230610	          0.03182638	          0.04353046	          0.02463950	          0.17362900	          0.01000011	          0.01000004	          0.13341041	          0.15682819	          0.01000002	
          0.09809085	         -6.51539431	         -3.76935432	         10.19863699	          0.10716825	          0.87755625	         -0.01308644	         21.03315830	          2.11455384	          1.34645054	         -0.81219588	          3.00913243	          0.15029154	         -6.62879590	         -2.37525460	          9.41892255	        -22.00478639	          7.95276415	         33.48983366	         -0.42835425	          4.03404134	         -2.98919893	          0.04553787	          0.06155738	          0.01000007	          0.11752107	          0.05683596	          0.04659191	          0.01305800	          0.03222643	          0.01346076	          0.01000013	          0.03079239	          0.01000057	          0.01000066	          0.35627210	          0.14523045	          0.01000004	          0.01000014	          0.02208885	          0.08421735	          0.03684763	          0.04736968	          0.01997447	          0.15414846	          0.01000007	          0.01000002	          0.10815164	          0.12713570	          0.01000003	
